<svg xmlns="http://www.w3.org/2000/svg" font-family="Inter, system-ui, sans-serif" viewBox="0 0 920 480"><rect width="920" height="480" fill="#f7f7f5" rx="18"/><text x="460" y="50" fill="#6b6b6b" font-size="11" font-weight="600" letter-spacing="2.5" text-anchor="middle">FROM LIBRARY TO LIVING SYSTEM</text><text fill="#6b6b6b" font-size="11" font-weight="600" letter-spacing="2" transform="translate(60 90)">BEFORE</text><text y="22" fill="#0a0a0a" font-size="14" font-weight="700" transform="translate(60 90)">24 orchestrations · 0 reuse signal.</text><g opacity=".85" transform="translate(60 130)"><rect width="56" height="40" fill="#fff" stroke="#0a0a0a" stroke-width=".8" rx="3"/><rect width="14" height="14" x="6" y="6" fill="#ededed" rx="3"/><rect width="26" height="3" x="24" y="8" fill="#0a0a0a" rx="1"/><rect width="20" height="2" x="24" y="14" fill="silver" rx="1"/><rect width="44" height="2" x="6" y="26" fill="silver" rx="1"/><rect width="32" height="2" x="6" y="32" fill="silver" rx="1"/></g><g opacity=".78" transform="translate(120 130)"><rect width="56" height="40" fill="#fff" stroke="#0a0a0a" stroke-width=".8" rx="3"/><rect width="14" height="14" x="6" y="6" fill="#ededed" rx="3"/><rect width="26" height="3" x="24" y="8" fill="#0a0a0a" rx="1"/><rect width="20" height="2" x="24" y="14" fill="silver" rx="1"/><rect width="44" height="2" x="6" y="26" fill="silver" rx="1"/><rect width="32" height="2" x="6" y="32" fill="silver" rx="1"/></g><g opacity=".7" transform="translate(180 130)"><rect width="56" height="40" fill="#fff" stroke="#0a0a0a" stroke-width=".8" rx="3"/><rect width="14" height="14" x="6" y="6" fill="#ededed" rx="3"/><rect width="26" height="3" x="24" y="8" fill="#0a0a0a" rx="1"/><rect width="20" height="2" x="24" y="14" fill="silver" rx="1"/><rect width="44" height="2" x="6" y="26" fill="silver" rx="1"/><rect width="32" height="2" x="6" y="32" fill="silver" rx="1"/></g><g opacity=".6" transform="translate(240 130)"><rect width="56" height="40" fill="#fff" stroke="#0a0a0a" stroke-width=".8" rx="3"/><rect width="14" height="14" x="6" y="6" fill="#ededed" rx="3"/><rect width="26" height="3" x="24" y="8" fill="#0a0a0a" rx="1"/><rect width="20" height="2" x="24" y="14" fill="silver" rx="1"/><rect width="44" height="2" x="6" y="26" fill="silver" rx="1"/><rect width="32" height="2" x="6" y="32" fill="silver" rx="1"/></g><g opacity=".5" transform="translate(300 130)"><rect width="56" height="40" fill="#fff" stroke="#0a0a0a" stroke-width=".8" rx="3"/><rect width="14" height="14" x="6" y="6" fill="#ededed" rx="3"/><rect width="26" height="3" x="24" y="8" fill="#0a0a0a" rx="1"/><rect width="20" height="2" x="24" y="14" fill="silver" rx="1"/><rect width="44" height="2" x="6" y="26" fill="silver" rx="1"/><rect width="32" height="2" x="6" y="32" fill="silver" rx="1"/></g><g opacity=".4" transform="translate(360 130)"><rect width="56" height="40" fill="#fff" stroke="#0a0a0a" stroke-width=".8" rx="3"/><rect width="14" height="14" x="6" y="6" fill="#ededed" rx="3"/><rect width="26" height="3" x="24" y="8" fill="#0a0a0a" rx="1"/><rect width="20" height="2" x="24" y="14" fill="silver" rx="1"/><rect width="44" height="2" x="6" y="26" fill="silver" rx="1"/><rect width="32" height="2" x="6" y="32" fill="silver" rx="1"/></g><g opacity=".7" transform="translate(60 176)"><rect width="56" height="40" fill="#fff" stroke="#0a0a0a" stroke-width=".8" rx="3"/><rect width="14" height="14" x="6" y="6" fill="#ededed" rx="3"/><rect width="26" height="3" x="24" y="8" fill="#0a0a0a" rx="1"/><rect width="20" height="2" x="24" y="14" fill="silver" rx="1"/></g><g opacity=".62" transform="translate(120 176)"><rect width="56" height="40" fill="#fff" stroke="#0a0a0a" stroke-width=".8" rx="3"/><rect width="14" height="14" x="6" y="6" fill="#ededed" rx="3"/><rect width="26" height="3" x="24" y="8" fill="#0a0a0a" rx="1"/><rect width="20" height="2" x="24" y="14" fill="silver" rx="1"/></g><g opacity=".54" transform="translate(180 176)"><rect width="56" height="40" fill="#fff" stroke="#0a0a0a" stroke-width=".8" rx="3"/><rect width="14" height="14" x="6" y="6" fill="#ededed" rx="3"/><rect width="26" height="3" x="24" y="8" fill="#0a0a0a" rx="1"/><rect width="20" height="2" x="24" y="14" fill="silver" rx="1"/></g><g opacity=".46" transform="translate(240 176)"><rect width="56" height="40" fill="#fff" stroke="#0a0a0a" stroke-width=".8" rx="3"/><rect width="14" height="14" x="6" y="6" fill="#ededed" rx="3"/><rect width="26" height="3" x="24" y="8" fill="#0a0a0a" rx="1"/></g><g opacity=".38" transform="translate(300 176)"><rect width="56" height="40" fill="#fff" stroke="#0a0a0a" stroke-width=".8" rx="3"/><rect width="14" height="14" x="6" y="6" fill="#ededed" rx="3"/></g><rect width="56" height="40" fill="#fff" stroke="#0a0a0a" stroke-width=".8" opacity=".3" rx="3" transform="translate(360 176)"/><rect width="56" height="40" fill="#fff" stroke="#0a0a0a" stroke-width=".8" opacity=".5" rx="3" transform="translate(60 222)"/><rect width="56" height="40" fill="#fff" stroke="#0a0a0a" stroke-width=".8" opacity=".44" rx="3" transform="translate(120 222)"/><rect width="56" height="40" fill="#fff" stroke="#0a0a0a" stroke-width=".8" opacity=".38" rx="3" transform="translate(180 222)"/><rect width="56" height="40" fill="#fff" stroke="#0a0a0a" stroke-width=".8" opacity=".32" rx="3" transform="translate(240 222)"/><rect width="56" height="40" fill="#fff" stroke="#0a0a0a" stroke-width=".8" opacity=".26" rx="3" transform="translate(300 222)"/><rect width="56" height="40" fill="#fff" stroke="#0a0a0a" stroke-width=".8" opacity=".2" rx="3" transform="translate(360 222)"/><rect width="56" height="40" fill="#fff" stroke="#0a0a0a" stroke-width=".8" opacity=".32" rx="3" transform="translate(60 268)"/><rect width="56" height="40" fill="#fff" stroke="#0a0a0a" stroke-width=".8" opacity=".27" rx="3" transform="translate(120 268)"/><rect width="56" height="40" fill="#fff" stroke="#0a0a0a" stroke-width=".8" opacity=".22" rx="3" transform="translate(180 268)"/><rect width="56" height="40" fill="#fff" stroke="#0a0a0a" stroke-width=".8" opacity=".17" rx="3" transform="translate(240 268)"/><rect width="56" height="40" fill="#fff" stroke="#0a0a0a" stroke-width=".8" opacity=".13" rx="3" transform="translate(300 268)"/><rect width="56" height="40" fill="#fff" stroke="#0a0a0a" stroke-width=".8" opacity=".1" rx="3" transform="translate(360 268)"/><text y="296" fill="#6b6b6b" font-size="9" font-style="italic" transform="translate(60 90)">Sitting there. Scrolled past. Rebuilt next time.</text><text fill="#6b6b6b" font-size="11" font-weight="600" letter-spacing="2" transform="translate(520 90)">AFTER</text><text y="22" fill="#0a0a0a" font-size="14" font-weight="700" transform="translate(520 90)">Capability discovery with confidence.</text><g transform="translate(520 130)"><rect width="340" height="34" fill="#fff" stroke="#0a0a0a" rx="6"/><circle cx="16" cy="17" r="4" fill="none" stroke="#0a0a0a"/><path stroke="#0a0a0a" d="m19 20 3 3"/><text x="30" y="21" fill="#6b6b6b" font-size="11" font-style="italic">automate supplier onboarding…</text></g><g transform="translate(520 178)"><rect width="340" height="54" fill="#fff" stroke="#0a0a0a" stroke-width="1.2" rx="6"/><rect width="22" height="22" x="12" y="12" fill="#ededed" stroke="#0a0a0a" stroke-width=".6" rx="4"/><text x="42" y="22" fill="#0a0a0a" font-size="10" font-weight="700">Risk Assessment Agent v1.8</text><text x="42" y="36" fill="#6b6b6b" font-size="9">Risk Scoring &amp; Analysis</text><text x="328" y="20" fill="#0a0a0a" font-size="14" font-weight="800" text-anchor="end">92%</text><text x="328" y="34" fill="#6b6b6b" font-size="8" font-weight="600" letter-spacing="1" text-anchor="end">REUSE</text><rect width="60" height="9" x="200" y="40" fill="#0a0a0a" rx="4.5"/><text x="230" y="46" fill="#fff" font-size="6.5" font-weight="700" text-anchor="middle">RECOMMENDED</text></g><g transform="translate(520 240)"><rect width="340" height="54" fill="#fff" stroke="#0a0a0a" rx="6"/><rect width="22" height="22" x="12" y="12" fill="#ededed" stroke="#0a0a0a" stroke-width=".6" rx="4"/><text x="42" y="22" fill="#0a0a0a" font-size="10" font-weight="700">Document Validator v2.1</text><text x="42" y="36" fill="#6b6b6b" font-size="9">Document Validation</text><text x="328" y="20" fill="#0a0a0a" font-size="14" font-weight="800" text-anchor="end">87%</text><text x="328" y="34" fill="#6b6b6b" font-size="8" font-weight="600" letter-spacing="1" text-anchor="end">REUSE</text></g><g transform="translate(520 302)"><rect width="340" height="54" fill="#fff" stroke="#0a0a0a" rx="6"/><rect width="22" height="22" x="12" y="12" fill="#0a0a0a" stroke="#0a0a0a" stroke-width=".6" rx="4"/><text x="22" y="27" fill="#fff" font-size="14" font-weight="800" text-anchor="middle">+</text><text x="42" y="22" fill="#0a0a0a" font-size="10" font-weight="700">ERP Record Creation</text><text x="42" y="36" fill="#6b6b6b" font-size="9">No matching agent found</text><text x="328" y="20" fill="silver" font-size="14" font-weight="800" text-anchor="end">NA</text><text x="328" y="34" fill="#6b6b6b" font-size="8" font-weight="600" letter-spacing="1" text-anchor="end">CREATE NEW</text></g><text y="296" fill="#6b6b6b" font-size="9" font-style="italic" transform="translate(520 90)">Compose Before Create. Sprawl prevented at the door.</text></svg>