<svg xmlns="http://www.w3.org/2000/svg" font-family="Inter, system-ui, sans-serif" viewBox="0 0 920 600"><rect width="920" height="600" fill="#f2f2ef" rx="18"/><text x="460" y="56" fill="#6b6b6b" font-size="11" font-weight="600" letter-spacing="2.5" text-anchor="middle">5.3 — COMPOSE BEFORE CREATE</text><text x="460" y="92" fill="#0a0a0a" font-size="26" font-weight="800" text-anchor="middle">Search first. Generate second.</text><g transform="translate(160 140)"><rect width="600" height="46" fill="#fff" stroke="#0a0a0a" stroke-width="1.2" rx="8"/><circle cx="22" cy="23" r="5" fill="none" stroke="#0a0a0a" stroke-width="1.2"/><path stroke="#0a0a0a" stroke-width="1.2" d="m26 27 6 6"/><text x="44" y="28" fill="#0a0a0a" font-size="13" font-style="italic">&quot;Automate supplier onboarding with compliance validation&quot;</text></g><path stroke="#0a0a0a" stroke-width="1.2" d="M460 200v32"/><path fill="#0a0a0a" d="m460 232-4-8h8z"/><text x="460" y="252" fill="#6b6b6b" font-size="10" font-weight="600" letter-spacing="2" text-anchor="middle">CAPABILITY DISCOVERY</text><g transform="translate(160 276)"><rect width="600" height="68" fill="#fff" stroke="#0a0a0a" stroke-width="1.5" rx="8"/><rect width="124" height="16" x="16" y="12" fill="#ededed" rx="3"/><text x="78" y="23" fill="#6b6b6b" font-size="8" font-weight="600" letter-spacing="1" text-anchor="middle">RISK SCORING &amp; ANALYSIS</text><text x="16" y="46" fill="#0a0a0a" font-size="13" font-weight="700">Risk Assessment Agent v1.8</text><text x="16" y="60" fill="#6b6b6b" font-size="11">Matches subtask vocabulary, input shape, and output schema.</text><text x="486" y="32" fill="#6b6b6b" font-size="11" font-weight="600" letter-spacing="1.5" text-anchor="end">CONFIDENCE</text><text x="486" y="58" fill="#0a0a0a" font-size="28" font-weight="800" letter-spacing="-.5" text-anchor="end">92%</text><rect width="78" height="24" x="506" y="22" fill="#0a0a0a" rx="12"/><text x="545" y="38" fill="#fff" font-size="9" font-weight="700" letter-spacing="1" text-anchor="middle">REUSE</text></g><g transform="translate(160 358)"><rect width="600" height="68" fill="#fff" stroke="#0a0a0a" rx="8"/><rect width="118" height="16" x="16" y="12" fill="#ededed" rx="3"/><text x="75" y="23" fill="#6b6b6b" font-size="8" font-weight="600" letter-spacing="1" text-anchor="middle">DOCUMENT VALIDATION</text><text x="16" y="46" fill="#0a0a0a" font-size="13" font-weight="700">Document Validator v2.1</text><text x="16" y="60" fill="#6b6b6b" font-size="11">OCR + data extraction. Slight schema gap — combine recommended.</text><text x="486" y="32" fill="#6b6b6b" font-size="11" font-weight="600" letter-spacing="1.5" text-anchor="end">CONFIDENCE</text><text x="486" y="58" fill="#0a0a0a" font-size="28" font-weight="800" letter-spacing="-.5" text-anchor="end">87%</text><rect width="78" height="24" x="506" y="22" fill="#fff" stroke="#0a0a0a" stroke-width="1.2" rx="12"/><text x="545" y="38" fill="#0a0a0a" font-size="9" font-weight="700" letter-spacing="1" text-anchor="middle">COMBINE</text></g><g transform="translate(160 440)"><rect width="600" height="68" fill="#fff" stroke="#0a0a0a" rx="8"/><rect width="120" height="16" x="16" y="12" fill="#ededed" rx="3"/><text x="76" y="23" fill="#6b6b6b" font-size="8" font-weight="600" letter-spacing="1" text-anchor="middle">ERP RECORD CREATION</text><text x="16" y="46" fill="#0a0a0a" font-size="13" font-weight="700">No matching agent found</text><text x="16" y="60" fill="#6b6b6b" font-size="11">Schema unique to your environment. Create new from this brief.</text><text x="486" y="32" fill="#6b6b6b" font-size="11" font-weight="600" letter-spacing="1.5" text-anchor="end">CONFIDENCE</text><text x="486" y="58" fill="silver" font-size="28" font-weight="800" letter-spacing="-.5" text-anchor="end">NA</text><rect width="78" height="24" x="506" y="22" fill="#fff" stroke="#0a0a0a" stroke-width="1.2" rx="12"/><text x="545" y="38" fill="#0a0a0a" font-size="9" font-weight="700" letter-spacing="1" text-anchor="middle">CREATE</text></g><text x="460" y="570" fill="#6b6b6b" font-size="11" font-style="italic" text-anchor="middle">The platform searches its own memory before generating anything new. Anti-sprawl by design.</text></svg>